<?xml version="1.0" encoding="UTF-8" standalone="no"?>
<svg xmlns:rdf="http://www.w3.org/1999/02/22-rdf-syntax-ns#" xmlns="http://www.w3.org/2000/svg" height="184.87mm" width="199.03mm" version="1.0" xmlns:xlink="http://www.w3.org/1999/xlink" xmlns:dc="http://purl.org/dc/elements/1.1/">
 <defs id="defs6">
  <linearGradient id="BWgrad">
   <stop id="stop9" offset="0"/>
   <stop id="stop11" stop-color="#fff" offset="1"/>
  </linearGradient>
  <linearGradient id="grad3" y2="-2173.8" xlink:href="#BWgrad" gradientUnits="userSpaceOnUse" y1="4016.4" gradientTransform="scale(.93426 1.0704)" x2="15715" x1="8399.5"/>
  <linearGradient id="grad5" y2="978.35" xlink:href="#BWgrad" gradientUnits="userSpaceOnUse" y1="4727.9" gradientTransform="scale(.78382 1.2758)" x2="9066" x1="10797"/>
  <linearGradient id="grad6" y2="8020.5" xlink:href="#BWgrad" gradientUnits="userSpaceOnUse" y1="-22.414" gradientTransform="scale(1.379 .72517)" x2="8506.2" x1="463.33"/>
  <linearGradient id="grad56" y2="4825.3" gradientUnits="userSpaceOnUse" y1="4531.9" gradientTransform="matrix(.058501 0 0 -.048016 -350.58 1065.6)" x2="7800.4" x1="7514.2">
   <stop id="stop76" stop-color="#9a1212" offset="0"/>
   <stop id="stop78" stop-color="#da1a1a" offset=".7"/>
   <stop id="stop80" stop-color="#ce1919" offset="1"/>
  </linearGradient>
  <linearGradient id="grad36" y2="5838.1" gradientUnits="userSpaceOnUse" y1="5419.6" gradientTransform="matrix(.078488 0 0 -.035789 -350.58 1065.6)" x2="7317.4" x1="7624.3">
   <stop id="stop83" stop-color="#570a0a" offset="0"/>
   <stop id="stop85" stop-color="#ba1616" offset=".5"/>
   <stop id="stop87" stop-color="#ce1919" offset="1"/>
  </linearGradient>
  <linearGradient id="grad35" y2="1213" gradientUnits="userSpaceOnUse" y1="887.28" gradientTransform="matrix(.031805 0 0 -.088319 -350.58 1065.6)" x2="15151" x1="15673">
   <stop id="stop90" stop-color="#570a0a" offset="0"/>
   <stop id="stop92" stop-color="#9a1212" offset="1"/>
  </linearGradient>
  <linearGradient id="cgrad53" y2="5235.3" gradientUnits="userSpaceOnUse" y1="4974.3" gradientTransform="matrix(.083642 0 0 -.033584 -350.58 1065.6)" x2="6168.9" x1="6199">
   <stop id="stop95" stop-color="#570a0a" offset="0"/>
   <stop id="stop97" stop-color="#bd1717" offset="1"/>
  </linearGradient>
  <linearGradient id="cgrad56" y2="3604.4" gradientUnits="userSpaceOnUse" y1="3359" gradientTransform="matrix(.054896 0 0 -.051170 -350.58 1065.6)" x2="9163.1" x1="9062.8">
   <stop id="stop100" stop-color="#9a1212" offset="0"/>
   <stop id="stop102" stop-color="#da1a1a" offset="1"/>
  </linearGradient>
  <linearGradient id="cgrad6c" y2="3582" gradientUnits="userSpaceOnUse" y1="3440.1" gradientTransform="matrix(.054515 0 0 -.051527 -350.58 1065.6)" x2="9379.9" x1="9448">
   <stop id="stop105" stop-color="#ba1616" offset="0"/>
   <stop id="stop107" stop-color="#da1a1a" offset="1"/>
  </linearGradient>
  <linearGradient id="cgrad63" y2="3201.7" gradientUnits="userSpaceOnUse" y1="3010" gradientTransform="matrix(.050612 0 0 -.055501 -350.58 1065.6)" x2="10179" x1="10245">
   <stop id="stop110" stop-color="#570a0a" offset="0"/>
   <stop id="stop112" stop-color="#bd1717" offset="1"/>
  </linearGradient>
  <linearGradient id="cgrad66" y2="2962.9" gradientUnits="userSpaceOnUse" y1="2916" gradientTransform="matrix(.046217 0 0 -.060779 -350.58 1065.6)" x2="10965" x1="11144">
   <stop id="stop115" stop-color="#ba1616" offset="0"/>
   <stop id="stop117" stop-color="#da1a1a" offset="1"/>
  </linearGradient>
  <radialGradient id="rcgrad" gradientUnits="userSpaceOnUse" cy="3310" cx="9607" gradientTransform="matrix(.053 0 0 .053 -350.58 -1065.6)" r="201">
   <stop id="stop120" stop-color="#bd1717" offset="0"/>
   <stop id="stop122" stop-color="#bd1717" stop-opacity="0" offset="1"/>
  </radialGradient>
  <linearGradient id="linearGradient3568" y2="7986.2" xlink:href="#BWgrad" gradientUnits="userSpaceOnUse" x2="7494" gradientTransform="scale(1.3731 .72828)" y1="6368.5" x1="5876.3"/>
  <linearGradient id="linearGradient3570" y2="7268.7" xlink:href="#BWgrad" gradientUnits="userSpaceOnUse" x2="6381.4" gradientTransform="scale(1.3613 .73461)" y1="5604.3" x1="4717"/>
  <linearGradient id="linearGradient3572" y2="7148.4" xlink:href="#BWgrad" gradientUnits="userSpaceOnUse" x2="8154.8" gradientTransform="scale(1.3489 .74135)" y1="5491.3" x1="6497.7"/>
  <linearGradient id="linearGradient3574" y2="6436.5" xlink:href="#BWgrad" gradientUnits="userSpaceOnUse" x2="7012.8" gradientTransform="scale(1.339 .74684)" y1="4727.7" x1="5304.1"/>
  <linearGradient id="linearGradient3576" y2="6392.8" xlink:href="#BWgrad" gradientUnits="userSpaceOnUse" x2="8743.3" gradientTransform="scale(1.3416 .74538)" y1="4706.8" x1="7057.3"/>
  <linearGradient id="linearGradient3578" y2="5700.3" xlink:href="#BWgrad" gradientUnits="userSpaceOnUse" x2="7542.9" gradientTransform="scale(1.3415 .74541)" y1="3972.8" x1="5815.4"/>
  <linearGradient id="linearGradient3580" y2="2181" xlink:href="#BWgrad" gradientUnits="userSpaceOnUse" x2="13548" gradientTransform="scale(.93343 1.0713)" y1="3577.5" x1="11897"/>
  <linearGradient id="linearGradient3582" y2="1117.2" xlink:href="#BWgrad" gradientUnits="userSpaceOnUse" x2="12309" gradientTransform="scale(.94545 1.0577)" y1="2509.5" x1="10664"/>
  <linearGradient id="linearGradient3584" y2="20.019" xlink:href="#BWgrad" gradientUnits="userSpaceOnUse" x2="11136" gradientTransform="scale(.95505 1.0471)" y1="1415.1" x1="9487.7"/>
  <linearGradient id="linearGradient3586" y2="1972.1" xlink:href="#BWgrad" gradientUnits="userSpaceOnUse" x2="9523.2" gradientTransform="scale(.81594 1.2256)" y1="2783.7" x1="9897.7"/>
  <linearGradient id="linearGradient3588" y2="1711.5" xlink:href="#BWgrad" gradientUnits="userSpaceOnUse" x2="8562" gradientTransform="scale(.80927 1.2357)" y1="2498.3" x1="8925.1"/>
  <linearGradient id="linearGradient3590" y2="794.14" xlink:href="#BWgrad" gradientUnits="userSpaceOnUse" x2="9961.1" gradientTransform="scale(.83061 1.2039)" y1="1613.5" x1="10339"/>
  <linearGradient id="linearGradient3592" y2="2276.2" xlink:href="#BWgrad" gradientUnits="userSpaceOnUse" x2="10412" gradientTransform="scale(.83133 1.2029)" y1="3119.1" x1="10801"/>
  <linearGradient id="linearGradient3594" y2="3159.9" xlink:href="#BWgrad" gradientUnits="userSpaceOnUse" x2="8902.5" gradientTransform="scale(.81614 1.2253)" y1="3971.3" x1="9277"/>
  <mask id="mask2920">
   <path id="path2918" d="m304 156.5a149 149 0 1 1 -298 0 149 149 0 1 1 298 0z" fill-rule="evenodd" transform="matrix(.99664 0 0 .99664 2.0201 .52517)" fill="#fff"/>
  </mask>
 </defs>
 <g id="g3446" transform="matrix(1.2249 0 0 1.2249 293.78 -876.44)">
  <path id="path170" fill="#570a0a" d="m258.92 855.15c-25.493 8.427-58.777 19.345-73.988 24.327l-27.56 9.063-0.901 3.816c-0.477 2.12-6.148 27.136-12.561 55.544s-14.31 63.335-17.543 77.592c-4.823 21.147-5.777 25.97-5.194 26.341 0.424 0.265 2.332 0.477 4.293 0.477 3.445 0 6.36-1.06 69.642-24.698 42.188-15.794 66.939-25.334 68.476-26.394 1.378-0.901 3.127-2.703 3.922-4.028 1.113-1.855 5.671-18.55 20.564-75.79 10.494-40.386 18.762-70.967 18.815-75.525 0-2.385-0.636-6.095-1.219-6.042-0.212 0-21.253 6.943-46.746 15.317z"/>
  <path id="path172" fill="#9a1212" d="m29.748 789.8c-0.742 1.113-1.59 2.703-1.855 3.604-0.318 0.848-6.784 34.715-14.363 75.207-10.494 55.756-13.78 74.147-13.515 75.79 0.212 1.219 0.954 3.392 1.643 4.929 1.219 2.491 6.307 6.996 57.982 51.516 31.111 26.818 57.558 49.237 58.671 49.873 1.113 0.583 2.067 0.901 2.12 0.689 0.159-0.583 10.229-44.838 23.479-103.51 6.148-27.242 11.66-51.516 12.243-53.954 0.53-2.438 1.007-4.664 1.007-4.876 0-0.265-27.984-22.843-62.116-50.138-34.185-27.348-62.593-50.032-63.07-50.456-0.795-0.636-1.007-0.53-2.226 1.325z"/>
  <path id="path174" fill="#ce1919" d="m103.68 764.25c-54.007 15.794-67.946 20.087-69.695 21.306-1.166 0.848-2.173 1.802-2.173 2.173 0 0.318 28.196 23.161 62.646 50.721l62.699 50.138 57.346-18.815c31.588-10.335 64.872-21.253 74.041-24.274s16.748-5.724 16.854-6.042c0.636-1.961-4.664-6.095-62.434-48.495-32.754-24.009-60.844-44.308-62.434-45.156-5.353-2.703-2.226-3.445-76.85 18.444z"/>
  <path id="path176" fill="url(#grad56)" d="m40.136 783.28c-1.325 0.371-3.551 1.007-4.77 1.537-4.452 2.014-6.837 5.406-7.791 10.017l-0.477 2.544 60.42 48.866c33.337 26.924 61.692 49.449 63.017 50.138l2.968 1.537 4.77 0.848 2.703-0.424c5.247-0.901 8.374-7.685 6.042-13.197-0.742-1.802-4.452-5.777-8.321-8.904z"/>
  <path id="path178" fill="url(#grad35)" d="m146.93 893.68-17.278 74.359-17.808 77.38 3.922 3.286c3.445 3.074 5.088 3.604 8.904 3.657 2.597 0.053 6.042-0.954 9.222-2.173l35.192-156.77z"/>
  <path id="path180" fill="url(#grad36)" d="m228.34 855.31c-38.213 12.879-67.151 22.684-67.363 22.843l1.961 10.865 4.823 9.54 69.112-23.161 68.847-23.267 0.689-2.756c1.007-4.611 0.583-6.943-0.742-10.176-1.219-2.385-4.187-4.558-7.473-7.208z"/>
  <path id="path182" fill="url(#cgrad53)" d="m146.93 893.68 20.988 4.823-9.328-8.427z"/>
  <path id="path184" fill="url(#cgrad56)" d="m146.93 893.68 9.805-10.918 1.908 7.367z"/>
  <path id="path186" fill="url(#cgrad6c)" d="m164.47 888.33-7.738-5.512 1.855 7.314z"/>
  <path id="path188" fill="url(#cgrad63)" d="m164.47 888.27 3.445 10.229-9.328-8.374z"/>
  <path id="path190" fill="url(#cgrad66)" d="m160.98 878.15-4.24 4.664 7.738 5.512z"/>
  <circle id="circle192" transform="scale(1,-1)" cy="-890.13" cx="158.59" r="10.653" fill="url(#rcgrad)"/>
  <g id="g194" transform="matrix(.053 0 0 -.053 -350.58 1065.6)">
   <path id="path196" fill="url(#linearGradient3568)" d="m9671 5805c-106-30-158-86-145-154 17-81 158-183 310-221 97-25 248-27 324-4 67 20 130 78 130 119 0 96-134 202-315 250-88 24-238 28-304 10z"/>
   <path id="path198" fill="url(#linearGradient3570)" d="m8075 5333c-85-19-147-64-165-119-32-97 110-224 309-275 98-26 245-28 324-5 61 18 123 64 138 104 37 97-109 232-307 282-73 19-241 26-299 13z"/>
   <path id="path200" fill="url(#linearGradient3572)" d="m10405 5293c-143-32-202-102-165-197 24-63 160-155 280-190 245-71 480-11 480 122 0 71-109 174-234 221-110 41-281 62-361 44z"/>
   <path id="path202" fill="url(#linearGradient3574)" d="m8797 4800c-27-5-74-21-104-35-156-77-108-229 102-330 95-46 191-67 305-68 120-1 197 22 252 73 33 32 38 43 38 81 0 94-91 182-249 239-118 43-239 57-344 40z"/>
   <path id="path204" fill="url(#linearGradient3576)" d="m11130 4760c-117-21-180-71-180-141 0-50 17-84 67-130 110-105 299-167 472-156 109 7 156 23 203 68 31 29 38 43 38 73 0 107-125 211-319 265-84 23-217 33-281 21z"/>
   <path id="path206" fill="url(#linearGradient3578)" d="m9463 4236c-96-30-143-80-143-151 0-50 20-84 81-139 107-96 244-141 429-141 109 0 132 3 176 23 138 62 151 170 32 277-103 92-262 145-432 144-56 0-120-6-143-13z"/>
  </g>
  <g id="g208" transform="matrix(.053 0 0 -.053 -350.58 1065.6)">
   <path id="path210" fill="url(#linearGradient3580)" d="m11842 3682c-253-90-468-476-346-622 102-121 369 24 499 272 123 234 42 419-153 350z"/>
   <path id="path212" fill="url(#linearGradient3582)" d="m10785 2491c-150-71-287-238-330-402-20-72-18-116 4-166 25-55 67-77 135-71 147 12 317 159 407 353 59 126 49 264-22 300-47 25-126 19-194-14z"/>
   <path id="path214" fill="url(#linearGradient3584)" d="m9760 1314c-199-99-368-367-330-525 22-92 97-125 206-91 233 73 453 404 380 575-22 53-50 71-119 75-56 3-70 0-137-34z"/>
  </g>
  <g id="g216" transform="matrix(.053 0 0 -.053 -350.58 1065.6)">
   <path id="path218" fill="url(#linearGradient3586)" d="m7830 3088c-34-18-52-36-75-78-59-109-43-312 36-460 90-169 243-253 340-187 76 51 103 126 97 272-7 155-61 286-161 385-81 82-164 106-237 68z"/>
   <path id="path220" fill="url(#linearGradient3588)" d="m7006 2780c-77-23-126-121-126-248 0-98 19-175 70-277 85-175 231-259 331-192 112 73 119 327 16 522-47 87-133 170-198 189-59 18-53 17-93 6z"/>
   <path id="path222" fill="url(#linearGradient3590)" d="m8335 1630c-30-12-72-60-90-104-78-187 48-531 227-620 135-67 240-1 268 169 33 201-103 483-265 551-37 15-108 18-140 4z"/>
   <path id="path224" fill="url(#linearGradient3592)" d="m8725 3428c-76-41-115-116-122-234-11-155 48-320 153-434 67-72 121-100 195-100 73 0 118 31 155 106 118 241-84 675-313 674-26 0-57-6-68-12z"/>
   <path id="path226" fill="url(#linearGradient3594)" d="m7305 4528c-47-41-72-91-85-171-25-159 42-361 159-478 115-115 239-111 304 9 84 155 35 421-107 579-58 64-115 93-184 93-43 0-57-5-87-32z"/>
  </g>
 </g>
 <g id="g3625" transform="matrix(1.2458 0 0 1.2458 34.112 111.37)">
  <path id="path2916" d="m304 156.5a149 149 0 1 1 -298 0 149 149 0 1 1 298 0z" fill-rule="evenodd" transform="matrix(.99664 0 0 .99664 2.0201 .52517)" fill="#fff"/>
  <g id="g2893" mask="url(#mask2920)">
   <g id="g2878" stroke="#000" fill="none">
    <path id="path623" d="m592.82 448.41c-6.76-10.52-13.28-15.38-26.14-18.61" transform="matrix(.65057 0 0 .65057 -87.309 -182.4)" stroke-width="2.3057"/>
    <path id="path1939" d="m50 45.375 13.5 13.75" transform="translate(1.573495e-5,-2.01112e-6)" stroke-width="1.5"/>
    <path id="path1941" d="m48 92c-30.657 21.96-38.125 66.51-37 66.25" transform="translate(1.573495e-5,-2.01112e-6)" stroke-width="1.5"/>
    <path id="path1943" d="m87 95.25c-3.1613 23.337 5.2515 48.914 22.75 76.25" transform="translate(1.573495e-5,-2.01112e-6)" stroke-width="1.5"/>
    <path id="path1945" d="m29.125 206.88c14.427 14.42 33.602 12.2 51.625 12.62" transform="translate(1.573495e-5,-2.01112e-6)" stroke-width="1.5"/>
    <path id="path1947" d="m124.63 264.86c-3.1223 8.2516-2.3152 19.684-0.53033 31.908" transform="translate(1.573495e-5,-2.01112e-6)" stroke-width="1.5"/>
    <path id="path1949" d="m103.06 28.42c11.48-11.491 36.1-18.908 68.24-22.274" transform="translate(1.573495e-5,-2.01112e-6)" stroke-width="1.5"/>
    <path id="path1951" d="m237.32 50.075c-7.98-14.876-22.06-26.565-36.94-37.825" transform="translate(1.573495e-5,-2.01112e-6)" stroke-width="1.5"/>
    <path id="path1953" d="m127.99 54.052c17.643 1.9872 49.487 4.6011 74.777 18.915" transform="translate(1.573495e-5,-2.01112e-6)" stroke-width="1.5"/>
    <path id="path1964" d="m222.5 124c-15.122 20.853-33.378 40.314-54.5 58.5" stroke-width="1.5"/>
    <path id="path1966" d="m177.5 238.25c19.358 10.801 40.561 15.445 66.25 11.25" stroke-width="1.5"/>
    <path id="path1968" d="m268.5 136.5c9.881 18.552 11.331 44.887 12.75 71.25" stroke-width="1.5"/>
    <path id="path1970" d="m277.75 96.75c8.1392 0.27365 16.027 4.5744 23.5 15.5" stroke-width="1.5"/>
   </g>
   <g id="g2870" fill-rule="evenodd">
    <path id="path1972" d="m40.25 98c20.654 3.6186 29.153 2.1598 46.25 3.75 10.107-13.262 27.26-30.048 45.25-47.25-7.42-11.585-14.43-23.441-23.25-30.75-22.39 7.591-38.335 16.939-53.5 26.5-9.518 16.574-14.565 32.509-14.75 47.75z"/>
    <path id="path2860" d="m198 70.75c6.7929 18.669 12.634 35.436 21.25 57.75 17.726 4.6808 36.626 10.301 51.25 12.5 4.7008-9.4375 7.8108-27.624 11.25-44-11.68-18.118-28.341-33.746-45.25-49.25-12.436 4.4851-25.404 13.229-38.5 23z"/>
    <path id="path2862" d="m106.75 167c22.795 3.75 44.787 7.5 66.25 11.25 6.6356 20.833 7.4943 41.667 9.75 62.5-16.41 13.636-39.039 17.942-59 26.25-23.226-15.013-32.683-31.748-46-48 7.6469-17.586 16.082-35.073 29-52z"/>
    <path id="path2864" d="m1.0607 148.8c0.032227 1.0478 8.0468 2.226 10.96 1.0607 3.3463 21.418 7.7287 42.145 19.445 57.983-2.294 11.223-0.13445 20.22 3.182 28.638-20.318 5.6947-18.552 8.774-26.517 12.374"/>
    <path id="path2866" d="m75.66 284.39c19.311 5.1125 33.379 15.037 48.26 9.8995 4.3768 6.1999 16.486 10.684 48.083 12.021l-85.913 7.6014"/>
    <path id="path2868" d="m299.62 212.62c-5.6374-4.1543-11.469-8.1141-18.75-10.625-14.5 19.317-29 41.308-43.5 48.25-0.26726 11.909-2.1232 22.547-7.375 30.469 10.951 0.73852 22.389 0.69864 35-1.2188"/>
   </g>
  </g>
  <path id="path2923" stroke-linejoin="round" d="m304 156.5a149 149 0 1 1 -298 0 149 149 0 1 1 298 0z" transform="matrix(.99664 0 0 .99664 2.0201 .52517)" stroke="#000" stroke-linecap="round" stroke-width="1.5051" fill="none"/>
 </g>
 <switch id="switch3490" transform="matrix(3.7591 0 0 3.7591 251.32 257.68)">
  <g id="g3492">
   <g id="Layer_2">
    <radialGradient id="SVGID_1_" gradientUnits="userSpaceOnUse" cy="31.531" r="60.208" cx="37.25">
     <stop id="stop3496" stop-color="#FF7500" offset=".1218"/>
     <stop id="stop3498" stop-color="#FC7301" offset=".3444"/>
     <stop id="stop3500" stop-color="#F16E02" offset=".533"/>
     <stop id="stop3502" stop-color="#E06605" offset=".7093"/>
     <stop id="stop3504" stop-color="#C75A09" offset=".877"/>
     <stop id="stop3506" stop-color="#B04F0D" offset="1"/>
    </radialGradient>
    <circle id="circle3508" cy="48.156" cx="48.125" r="48.125" fill="url(#SVGID_1_)"/>
   </g>
   <g id="Layer_3">
    <path id="path3511" d="m13.938 56.344c0-48.751 27.359-56 27.938-55.987v0.002l3.39-0.359c0 0.011-4.737 1.499-7.228 2.998-2.489 1.499-5.819 3.996-9.155 7.979-6.668 7.968-13.253 21.856-13.258 45.764 0 17.632 8.923 29.037 13.442 33.615 1.505 1.523 5.57 3.968 5.574 3.973l-5.047-1.781c-0.05-0.042-15.656-10.455-15.656-36.204z"/>
   </g>
   <g id="Layer_4">
    <path id="path3514" d="m14.757 45.695c-9-1.02-10.313-7.956-10.289-13.195l0.042-2.397c0.021-2.181 0.099-2.509 0.099-2.509l1.329-2.594s-0.428 2.642-0.428 5.103c0.027 5.181 1.197 12.238 9.388 13.132 0.927 0.101 1.813 0.15 2.665 0.15 6.021-0.521 13.952-4.812 23.771-12.354 9.735-7.441 25.958-17.083 38.208-17.208 1.063 0 2.118 0.259 2.911 0.583l1.359 1.469c-0.621-0.256-2.626-0.385-3.604-0.385-8.49-0.037-27.853 10.287-37.375 17.625-9.749 7.473-16.225 12.729-25.302 12.739-0.891 0-1.814-0.054-2.774-0.159z"/>
    <path id="path3516" d="m53.375 87.031c-5.658-1.547-12.604-5.717-19.406-8.984-6.576-3.163-13.266-5.547-18.594-6.328-0.746-0.091-1.415-0.128-2.019-0.128-3.712 0.017-5.156 1.55-5.507 2.157-0.114 0.208-0.24 0.361-0.24 0.361l-0.641-0.969c0.118-0.211 1.048-3.719 6.362-3.682 0.645 0 1.355 0.041 2.138 0.135 6.431 0.764 12.721 3.534 19.313 6.703 6.84 3.294 13.508 7.41 18.953 8.891 5.518 1.502 6.957 2.277 11 2.281 7.688 0.016 13.333-1.619 13.344-1.625l-0.922 0.672c-0.022 0.002-6.453 2.375-12.484 2.25-4.124 0.003-5.814-0.236-11.297-1.734z"/>
   </g>
   <g id="Layer_5">
    <path id="path3519" d="m14.784 59.765c-2.852-0.418-7.341-1.532-10.897-2.874-3.569-1.338-3.418-2.031-3.418-2.031s-0.281-1.25-0.375-3.625c0 0 1.094 1.016 1.828 1.438 0.484 0.399 1.663 0.943 3.172 1.516l-0.146-0.102c3.275 1.243 7.717 2.345 10.267 2.709 4.551 0.662 12.027 1.169 21.671 1.169 1.034 0 2.095-0.007 3.181-0.017 11.139-0.118 28.42-1.545 39.081-4.126 9.351-2.256 14.547-5.279 15.563-5.873 0.132-0.085 1.542-0.771 1.542-0.771 0.5-0.219 0.38 2.88-0.104 3.208-0.145 0.103-5.232 3.684-16.295 6.354-11.09 2.67-28.392 4.076-39.755 4.208-1.096 0.009-2.165 0.015-3.211 0.017-9.759-0.003-17.323-0.508-22.104-1.2z"/>
   </g>
  </g>
 </switch>
</svg>
